<svg width="1248" height="119" viewBox="0 0 1248 119" fill="none" xmlns="http://www.w3.org/2000/svg">
<path d="M193.1 115.5H153.5L138.74 82.0201H131V115.5H95V3.00006H151.7C177.5 3.00006 190.4 16.1401 190.4 42.4201C190.4 60.4201 184.82 72.3001 173.66 78.0601L193.1 115.5ZM131 31.8001V54.3001H139.28C143.6 54.3001 146.72 53.8801 148.64 53.0401C150.68 52.0801 151.7 49.9801 151.7 46.7401V39.3601C151.7 36.1201 150.68 34.0801 148.64 33.2401C146.72 32.2801 143.6 31.8001 139.28 31.8001H131Z" fill="black"/>
<path d="M200.342 59.3401C200.342 38.8201 204.182 23.8801 211.862 14.52C219.542 5.04005 233.402 0.300049 253.442 0.300049C273.482 0.300049 287.342 5.04005 295.022 14.52C302.702 23.8801 306.542 38.8201 306.542 59.3401C306.542 69.5401 305.702 78.1201 304.022 85.0801C302.462 92.0401 299.702 98.1001 295.742 103.26C291.782 108.42 286.322 112.2 279.362 114.6C272.402 117 263.762 118.2 253.442 118.2C243.122 118.2 234.482 117 227.522 114.6C220.562 112.2 215.102 108.42 211.142 103.26C207.182 98.1001 204.362 92.0401 202.682 85.0801C201.122 78.1201 200.342 69.5401 200.342 59.3401ZM239.042 40.6201V87.4201H253.982C258.902 87.4201 262.442 86.8801 264.602 85.8001C266.882 84.6001 268.022 81.9601 268.022 77.8801V31.0801H252.902C248.102 31.0801 244.562 31.6801 242.282 32.8801C240.122 33.9601 239.042 36.5401 239.042 40.6201Z" fill="black"/>
<path d="M385.181 115.5L357.641 75.5401C356.681 74.2201 356.081 71.3401 355.841 66.9001H355.121V115.5H319.121V3.00006H352.961L380.501 42.9601C381.461 44.2801 382.061 47.1601 382.301 51.6001H383.021V3.00006H419.021V115.5H385.181Z" fill="black"/>
<path d="M517.17 31.8001H491.07V115.5H455.07V31.8001H428.97V3.00006H517.17V31.8001Z" fill="black"/>
<path d="M522.57 113.52L527.61 83.8201C538.65 86.5801 548.55 87.9601 557.31 87.9601C566.19 87.9601 573.33 87.6001 578.73 86.8801V77.8801L562.53 76.4401C547.89 75.1201 537.81 71.6401 532.29 66.0001C526.89 60.2401 524.19 51.7801 524.19 40.6201C524.19 25.2601 527.49 14.7001 534.09 8.94006C540.81 3.18005 552.15 0.300049 568.11 0.300049C584.07 0.300049 598.47 1.80005 611.31 4.80006L606.81 33.6001C595.65 31.8001 586.71 30.9001 579.99 30.9001C573.27 30.9001 567.57 31.2001 562.89 31.8001V40.6201L575.85 41.8801C591.57 43.4401 602.43 47.2201 608.43 53.2201C614.43 59.1001 617.43 67.3201 617.43 77.8801C617.43 85.4401 616.41 91.8601 614.37 97.1401C612.33 102.3 609.87 106.26 606.99 109.02C604.23 111.66 600.27 113.7 595.11 115.14C589.95 116.58 585.39 117.42 581.43 117.66C577.59 118.02 572.43 118.2 565.95 118.2C550.35 118.2 535.89 116.64 522.57 113.52Z" fill="black"/>
<path d="M711.057 31.8001H684.957V115.5H648.957V31.8001H622.857V3.00006H711.057V31.8001Z" fill="black"/>
<path d="M741.449 115.5H703.469L732.629 3.00006H788.249L817.409 115.5H779.429L775.289 97.6801H745.589L741.449 115.5ZM759.449 37.5601L752.069 69.0601H768.629L761.429 37.5601H759.449Z" fill="black"/>
<path d="M899.016 83.2801L901.716 113.52C894.156 116.64 884.676 118.2 873.276 118.2C861.876 118.2 852.696 117 845.736 114.6C838.896 112.2 833.496 108.42 829.536 103.26C825.576 98.1001 822.816 92.0401 821.256 85.0801C819.696 78.1201 818.916 69.5401 818.916 59.3401C818.916 49.1401 819.696 40.5601 821.256 33.6001C822.816 26.5201 825.576 20.4001 829.536 15.24C837.216 5.28005 851.316 0.300049 871.836 0.300049C876.396 0.300049 881.736 0.78005 887.856 1.74005C894.096 2.58006 898.716 3.66006 901.716 4.98005L896.316 32.5201C888.516 30.8401 881.376 30.0001 874.896 30.0001C868.416 30.0001 863.916 30.6001 861.396 31.8001C858.876 33.0001 857.616 35.4001 857.616 39.0001V86.1601C862.296 87.1201 867.036 87.6001 871.836 87.6001C882.036 87.6001 891.096 86.1601 899.016 83.2801Z" fill="black"/>
<path d="M950.316 66.5401V115.5H914.316V3.00006H950.316V48.9001H951.036C951.276 45.3001 951.876 42.4201 952.836 40.2601L970.476 3.00006H1009.36L982.356 58.2601L1010.26 115.5H971.376L952.836 75.1801C951.876 73.0201 951.276 70.1401 951.036 66.5401H950.316Z" fill="black"/>
<path d="M1021.38 112.44C1018.74 109.68 1017.42 104.76 1017.42 97.6801C1017.42 90.6001 1018.74 85.62 1021.38 82.7401C1024.02 79.8601 1029.18 78.4201 1036.86 78.4201C1044.66 78.4201 1049.88 79.8601 1052.52 82.7401C1055.16 85.62 1056.48 90.6001 1056.48 97.6801C1056.48 104.76 1055.16 109.68 1052.52 112.44C1049.88 115.2 1044.66 116.58 1036.86 116.58C1029.18 116.58 1024.02 115.2 1021.38 112.44Z" fill="black"/>
<path d="M1128.4 88.3201H1105V115.5H1069V3.00006H1125.7C1151.5 3.00006 1164.4 16.8601 1164.4 44.5801C1164.4 59.8201 1161.04 71.1001 1154.32 78.4201C1151.8 81.1801 1148.32 83.5201 1143.88 85.4401C1139.44 87.3601 1134.28 88.3201 1128.4 88.3201ZM1105 31.8001V59.5201H1113.28C1117.6 59.5201 1120.72 59.1001 1122.64 58.2601C1124.68 57.3001 1125.7 55.2001 1125.7 51.9601V39.3601C1125.7 36.1201 1124.68 34.0801 1122.64 33.2401C1120.72 32.2801 1117.6 31.8001 1113.28 31.8001H1105Z" fill="black"/>
<path d="M1247.18 115.5H1175.18V3.00006H1211.18V86.7001H1247.18V115.5Z" fill="black"/>
<path d="M32.8873 115.5H0V2.63678H32.8873V115.5Z" fill="black"/>
<path d="M39.6142 28.7971V2.63678H87.4503V28.7971H39.6142Z" fill="black"/>
<path d="M39.6142 74.3909V48.2306H80.7233V74.3909H39.6142Z" fill="black"/>
<path d="M32.8873 115.5H0V2.63678H32.8873V115.5Z" fill="black"/>
<path d="M39.6142 28.7971V2.63678H87.4503V28.7971H39.6142Z" fill="black"/>
<path d="M39.6142 74.3909V48.2306H80.7233V74.3909H39.6142Z" fill="black"/>
<path d="M1021.06 112.769C1018.35 109.948 1017 104.92 1017 97.684C1017 90.4481 1018.35 85.3585 1021.06 82.4151C1023.76 79.4717 1029.04 78 1036.91 78C1044.9 78 1050.24 79.4717 1052.94 82.4151C1055.65 85.3585 1057 90.4481 1057 97.684C1057 104.92 1055.65 109.948 1052.94 112.769C1050.24 115.59 1044.9 117 1036.91 117C1029.04 117 1023.76 115.59 1021.06 112.769Z" fill="#EF5350"/>
<path d="M522 113.5L527 83.5C538.173 86.2623 547.5 87.5 556.5 88C565.487 88 573 87 578.5 86.5L578.335 78.1458L561.94 76.7046C547.124 75.3835 537.586 71.6448 532 66C526.535 60.2351 524 51.6695 524 40.5C524 25.127 526.821 14.7649 533.5 9C540.301 3.23511 551.848 0 568 0C584.152 0 598.5 2 611.5 4.5L606.752 33.8282C595.458 32.0267 586.411 31.126 579.61 31.126C572.809 31.126 567.736 31.3995 563 32V40.5L575.5 41.5C591.409 43.0613 602.428 46.9949 608.5 53C614.572 58.885 617.5 67.5769 617.5 78.1458C617.5 85.7122 616.468 92.1376 614.403 97.4221C612.339 102.587 609.849 106.55 606.935 109.312C604.141 111.954 600.134 113.996 594.912 115.437C589.69 116.879 585.075 117.719 581.067 117.96C577.181 118.32 571.558 118.5 565 118.5C549.213 118.5 535.48 116.623 522 113.5Z" fill="#EF5350"/>
<path d="M32.8873 115.363H0V2.5H32.8873V115.363Z" fill="black"/>
<path d="M39.6143 28.6603V2.5H87.4503V28.6603H39.6143Z" fill="black"/>
<path d="M39.6143 74.2541V48.0938H80.7234V74.2541H39.6143Z" fill="#EF5350"/>
</svg>
